<?xml version="1.0" encoding="UTF-8"?>
<svg id="Ebene_1" data-name="Ebene 1" xmlns="http://www.w3.org/2000/svg" viewBox="0 0 383.24 384.12">
  <defs>
    <style>
      .cls-1 {
        fill: #000;
        stroke-width: 0px;
      }
    </style>
  </defs>
  <path class="cls-1" d="M186.6,383.8c-4.56-1.77-9.48-2.98-13.5-5.57-10.29-6.63-15.16-16.57-15.16-28.83-.02-39.61,0-79.23,0-118.84,0-1.47,0-2.94,0-4.8-1.78,0-3.24,0-4.7,0-39.66,0-79.32.05-118.98-.02C15.27,225.69.31,211.15,0,192.75c-.32-19.08,14.58-34.39,33.87-34.46,31.43-.12,62.86-.03,94.29-.03,9.72,0,19.45,0,29.77,0v-4.43c0-38.86,0-77.73,0-116.59,0-20.27,8.87-31.72,28.55-36.86.23-.06.43-.24.65-.37,2.99,0,5.99,0,8.98,0,.21.13.41.31.65.37,19.55,4.96,28.55,16.58,28.55,36.88,0,38.75,0,77.5,0,116.25v4.76h4.74c39.55,0,79.09,0,118.64,0,12.25,0,22.17,4.86,28.79,15.18,2.69,4.19,3.89,9.35,5.77,14.07v9c-.16.33-.39.65-.49,1.01-4.99,19.22-16.58,28.24-36.32,28.24-38.8,0-77.6,0-116.39,0h-4.74v4.76c0,39.62.03,79.25-.02,118.87-.02,15.22-8.68,27.75-22.41,32.63-2.34.83-4.78,1.39-7.16,2.1-3.13-.11-5.99-.21-9.11-.32Z"/>
</svg>